<?xml version="1.0" encoding="UTF-8" standalone="no"?>
<svg xmlns:dc="http://purl.org/dc/elements/1.1/" xmlns:cc="http://creativecommons.org/ns#" xmlns:rdf="http://www.w3.org/1999/02/22-rdf-syntax-ns#" xmlns:svg="http://www.w3.org/2000/svg" xmlns="http://www.w3.org/2000/svg" xmlns:sodipodi="http://sodipodi.sourceforge.net/DTD/sodipodi-0.dtd" xmlns:inkscape="http://www.inkscape.org/namespaces/inkscape" sodipodi:docname="logo-davila.svg" inkscape:version="1.0 (4035a4f, 2020-05-01)" id="svg2182" version="1.1" viewBox="0 0 102.67103 40.046272" height="40.046272mm" width="102.67103mm">
  <defs id="defs2176">
    <clipPath clipPathUnits="userSpaceOnUse" id="clipPath1985">
      <path d="M 0,3262.983 H 1366 V 0 H 0 Z" id="path1983"/>
    </clipPath>
  </defs>
  <sodipodi:namedview inkscape:window-maximized="0" inkscape:window-y="23" inkscape:window-x="0" inkscape:window-height="943" inkscape:window-width="1252" fit-margin-bottom="0" fit-margin-right="0" fit-margin-left="0" fit-margin-top="0" showgrid="false" inkscape:document-rotation="0" inkscape:current-layer="layer1" inkscape:document-units="mm" inkscape:cy="729.96372" inkscape:cx="399.73828" inkscape:zoom="0.35" inkscape:pageshadow="2" inkscape:pageopacity="0.0" borderopacity="1.0" bordercolor="#666666" pagecolor="#ffffff" id="base"/>
  <metadata id="metadata2179">
    <rdf:RDF>
      <cc:Work rdf:about="">
        <dc:format>image/svg+xml</dc:format>
        <dc:type rdf:resource="http://purl.org/dc/dcmitype/StillImage"/>
        <dc:title/>
      </cc:Work>
    </rdf:RDF>
  </metadata>
  <g transform="translate(-0.06924634,44.969568)" id="layer1" inkscape:groupmode="layer" inkscape:label="Layer 1">
    <g transform="matrix(0.35277777,0,0,-0.35277777,-8.7503743,1078.0054)" id="g1979">
      <g id="g1981" clip-path="url(#clipPath1985)">
        <g id="g1987" transform="translate(286.7155,3069.7192)">
          <path d="m 0,0 h -251.666 c -5.55,0 -10.049,4.5 -10.049,10.05 v 74.147 c 0,16.192 13.126,29.32 29.32,29.32 H 19.271 c 5.55,0 10.05,-4.5 10.05,-10.051 V 29.321 C 29.321,13.127 16.193,0 0,0" style="fill:#ffffff;fill-opacity:1;fill-rule:nonzero;stroke:none" id="path1989"/>
        </g>
        <path d="m 234.145,3137.211 h 5.63 v -23.868 h -5.63 z" style="fill:#575956;fill-opacity:1;fill-rule:nonzero;stroke:none" id="path1991"/>
        <g id="g1993" transform="translate(187.9182,3140.1235)">
          <path d="m 0,0 c 0.006,0.009 3.656,4.765 3.656,4.765 l 5.727,0.022 c 0,0 -5.044,-4.766 -5.085,-4.769 C 3.463,0 2.626,-0.003 1.777,-0.003 Z" style="fill:#575956;fill-opacity:1;fill-rule:nonzero;stroke:none" id="path1995"/>
        </g>
        <g id="g1997" transform="translate(269.1667,3132.8101)">
          <path d="m 0,0 c -0.49,0 -0.992,-0.032 -1.492,-0.091 -2.492,-0.299 -4.222,-1.721 -5.003,-4.113 -0.65,-1.992 -0.711,-4.087 -0.182,-6.226 0.72,-2.915 2.707,-4.394 5.904,-4.394 3.165,0.031 5.242,1.675 5.806,4.511 0.218,1.098 0.265,2.235 0.312,3.335 0.02,0.494 0.04,0.988 0.075,1.478 l 0.025,0.327 -0.027,0.002 c 0.002,0.046 0.002,0.099 0.004,0.155 0.017,0.74 0.049,2.12 -0.099,2.948 0.026,0.532 -0.206,0.89 -0.773,1.134 C 3.11,-0.315 1.58,0 0,0 m -2.314,-19.723 c -0.287,0 -0.576,0.009 -0.871,0.029 -3.465,0.215 -5.99,1.516 -7.716,3.977 -1.194,1.7 -1.87,3.75 -2.068,6.265 -0.248,3.177 0.107,5.666 1.115,7.833 1.653,3.554 4.61,5.647 8.79,6.223 0.746,0.101 1.493,0.154 2.22,0.154 2.372,0 4.655,-0.557 6.785,-1.654 C 6.007,3.07 6.081,3.043 6.16,3.016 l 0.266,-0.093 0.23,0.208 c 0.08,0.139 0.15,0.297 0.218,0.455 0.095,0.221 0.226,0.524 0.34,0.573 0.15,0.064 0.345,0.093 0.613,0.093 0.149,0 0.3,-0.007 0.451,-0.016 C 8.441,4.228 8.604,4.219 8.762,4.219 h 0.007 c 0.77,0 1.444,-0.011 2.118,-0.022 l 0.172,-0.002 v -15.768 c 0,-0.283 0.002,-0.567 0.013,-0.849 0.055,-1.307 0.729,-2.191 1.783,-2.376 v -4.707 c -0.566,-0.137 -1.147,-0.205 -1.727,-0.205 -2.559,0 -4.561,1.299 -5.355,3.476 l -0.02,0.055 -0.092,0.124 -0.205,0.242 -0.293,-0.144 c -0.08,-0.052 -0.158,-0.102 -0.217,-0.188 -1.672,-2.407 -4.045,-3.578 -7.26,-3.578" style="fill:#575956;fill-opacity:1;fill-rule:nonzero;stroke:none" id="path1999"/>
        </g>
        <g id="g2001" transform="translate(213.0593,3113.3442)">
          <path d="m 0,0 -9.187,23.859 h 7.154 L 4.546,3.998 11.153,23.859 h 7.154 L 9.12,0 Z" style="fill:#575956;fill-opacity:1;fill-rule:nonzero;stroke:none" id="path2003"/>
        </g>
        <g id="g2005" transform="translate(173.9363,3137.2256)">
          <path d="m 0,0 c -2.543,4.792 -6.785,7.399 -12.608,7.75 -2.37,0.143 -4.731,0.161 -6.524,0.161 -0.95,0 -6.953,-0.03 -6.953,-0.03 V 2.587 c 0,0 9.525,0.021 9.984,0.021 1.033,0 2.256,-0.018 3.507,-0.155 4.212,-0.465 6.836,-2.841 7.8,-7.062 0.604,-2.648 0.517,-5.245 -0.26,-7.718 -1.137,-3.622 -3.738,-5.735 -7.519,-6.11 -0.805,-0.08 -1.669,-0.117 -2.719,-0.117 h -10e-4 c -0.73,0 -1.464,0.017 -2.206,0.035 -0.748,0.019 -1.503,0.038 -2.266,0.038 h -0.332 v 16.112 h -5.988 v -21.47 l 4.337,-0.007 c 1.024,0 2.041,0.003 3.06,0.014 0.4,0.005 2.266,0.005 2.266,0.005 1.521,0 3.137,0.012 4.699,0.179 4.404,0.465 7.907,2.347 10.411,5.589 1.723,2.232 2.743,4.943 3.032,8.06 C 2.08,-6.129 1.517,-2.858 0,0" style="fill:#575956;fill-opacity:1;fill-rule:nonzero;stroke:none" id="path2007"/>
        </g>
        <g id="g2009" transform="translate(239.9949,3143.269)">
          <path d="M 0,0 C 0,1.676 -1.359,3.034 -3.035,3.034 -4.711,3.034 -6.07,1.676 -6.07,0 c 0,-1.677 1.359,-3.035 3.035,-3.035 C -1.359,-3.035 0,-1.677 0,0" style="fill:#575956;fill-opacity:1;fill-rule:nonzero;stroke:none" id="path2011"/>
        </g>
        <g id="g2013" transform="translate(254.4153,3118.8521)">
          <path d="m 0,0 c -0.004,-0.002 -0.009,-0.005 -0.013,-0.007 -0.345,-0.209 -0.673,-0.407 -1.033,-0.549 -0.418,-0.164 -0.822,-0.247 -1.201,-0.247 -1.291,0 -2.128,0.933 -2.186,2.434 -0.012,0.296 -0.012,0.593 -0.012,0.931 v 24.89 h -5.739 c 0,0 -0.001,-19.876 0.005,-26.385 0,-0.494 0.03,-1.027 0.092,-1.585 0.263,-2.408 1.312,-3.95 3.207,-4.715 0.875,-0.352 1.752,-0.532 2.609,-0.532 1.359,0 2.7,0.449 3.985,1.33 0.128,0.088 0.262,0.331 0.266,0.481 0.028,1.103 0.025,2.204 0.021,3.345 z" style="fill:#575956;fill-opacity:1;fill-rule:nonzero;stroke:none" id="path2015"/>
        </g>
        <g id="g2017" transform="translate(190.7034,3132.8101)">
          <path d="m 0,0 c -0.489,0 -0.991,-0.032 -1.491,-0.091 -2.493,-0.299 -4.223,-1.721 -5.003,-4.113 -0.651,-1.992 -0.711,-4.087 -0.182,-6.226 0.719,-2.915 2.706,-4.394 5.903,-4.394 3.166,0.031 5.242,1.675 5.807,4.511 0.217,1.098 0.265,2.235 0.311,3.335 0.02,0.494 0.041,0.988 0.076,1.478 l 0.024,0.327 -0.026,0.002 c 0.001,0.046 0.002,0.099 0.003,0.155 0.017,0.74 0.049,2.12 -0.099,2.948 0.026,0.532 -0.206,0.89 -0.773,1.134 C 3.11,-0.315 1.58,0 0,0 m -2.313,-19.723 c -0.287,0 -0.577,0.009 -0.872,0.029 -3.465,0.215 -5.99,1.516 -7.716,3.977 -1.194,1.7 -1.87,3.75 -2.068,6.265 -0.247,3.177 0.107,5.666 1.115,7.833 1.654,3.554 4.611,5.647 8.79,6.223 0.747,0.101 1.493,0.154 2.22,0.154 2.373,0 4.656,-0.557 6.785,-1.654 C 6.008,3.07 6.082,3.043 6.161,3.016 L 6.426,2.923 6.657,3.131 C 6.736,3.27 6.806,3.428 6.874,3.586 6.969,3.807 7.101,4.11 7.215,4.159 7.364,4.223 7.559,4.252 7.827,4.252 7.976,4.252 8.127,4.245 8.278,4.236 8.442,4.228 8.604,4.219 8.762,4.219 H 8.77 c 0.769,0 1.443,-0.011 2.118,-0.022 l 0.171,-0.002 0.001,-15.768 c 0,-0.283 10e-4,-0.567 0.012,-0.849 0.055,-1.307 0.729,-2.191 1.783,-2.376 v -4.707 c -0.566,-0.137 -1.146,-0.205 -1.726,-0.205 -2.559,0 -4.561,1.299 -5.356,3.476 l -0.019,0.055 -0.092,0.124 -0.206,0.242 -0.293,-0.144 c -0.08,-0.052 -0.158,-0.102 -0.217,-0.188 -1.671,-2.407 -4.044,-3.578 -7.259,-3.578" style="fill:#575956;fill-opacity:1;fill-rule:nonzero;stroke:none" id="path2019"/>
        </g>
        <g id="g2021" transform="translate(93.5759,3164.4087)">
          <path d="m 0,0 c -6.145,0 -11.143,-4.999 -11.143,-11.144 v -2.608 h 8.359 v 1.24 c 0,2.29 1.864,4.155 4.154,4.155 h 6.792 v -23.422 h 8.359 V 0 Z" style="fill:#f28b00;fill-opacity:1;fill-rule:nonzero;stroke:none" id="path2023"/>
        </g>
        <g id="g2025" transform="translate(101.738,3103.6782)">
          <path d="m 0,0 v -1.246 c 0,-2.292 -1.864,-4.156 -4.154,-4.156 h -6.792 v 23.421 h -8.36 v -31.778 h 16.522 c 6.144,0 11.143,4.999 11.143,11.143 V 0 Z" style="fill:#a91c8e;fill-opacity:1;fill-rule:nonzero;stroke:none" id="path2027"/>
        </g>
        <g id="g2029" transform="translate(122.3826,3140.9995)">
          <path d="m 0,0 h -3.12 v -8.359 h 1.751 c 2.291,0 4.155,-1.864 4.155,-4.155 v -6.791 h -23.153 v -8.36 h 31.511 v 16.522 C 11.144,-4.999 6.145,0 0,0" style="fill:#00afab;fill-opacity:1;fill-rule:nonzero;stroke:none" id="path2031"/>
        </g>
        <g id="g2033" transform="translate(91.1106,3132.6401)">
          <path d="M 0,0 V 8.359 H -32.097 V -8.162 c 0,-6.144 4.998,-11.143 11.143,-11.143 h 2.62 v 8.36 h -1.25 c -2.292,0 -4.156,1.863 -4.156,4.153 V 0 Z" style="fill:#ff5a5a;fill-opacity:1;fill-rule:nonzero;stroke:none" id="path2035"/>
        </g>
      </g>
    </g>
  </g>
</svg>